<?xml version="1.0" standalone="no"?>
<!DOCTYPE svg PUBLIC "-//W3C//DTD SVG 20010904//EN"
 "http://www.w3.org/TR/2001/REC-SVG-20010904/DTD/svg10.dtd">
<svg version="1.0" xmlns="http://www.w3.org/2000/svg"
width="127" height="24" viewBox="0 0 127 24"
 preserveAspectRatio="xMidYMid meet">


<g transform="translate(0.000000,500.000000) scale(0.100000,-0.100000)"
fill="#000000" stroke="none">
<path d="M1537 2662 c-15 -16 -17 -46 -17 -215 0 -257 -19 -237 224 -237 170
0 185 1 210 21 l26 20 0 195 c0 181 -1 195 -20 214 -19 19 -33 20 -213 20
-175 0 -196 -2 -210 -18z m201 -211 c1 -86 -2 -159 -7 -164 -5 -5 -18 -6 -30
-2 -20 6 -21 13 -21 159 0 84 3 156 7 160 4 4 16 6 28 4 19 -3 20 -11 23 -157z
m150 -27 c2 -111 0 -133 -13 -138 -40 -15 -45 1 -45 134 0 131 3 141 40 137
12 -2 15 -26 18 -133z m-70 -35 c3 -90 -9 -119 -43 -105 -12 4 -15 25 -15 101
l0 96 28 -3 c27 -3 27 -3 30 -89z m-154 15 c12 -30 6 -101 -9 -114 -29 -24
-45 -4 -45 58 0 32 3 62 7 65 12 13 41 7 47 -9z"/>
<path d="M2138 2519 c-28 -16 -22 -48 12 -67 38 -22 38 -35 0 -30 -34 5 -51
-9 -29 -23 20 -13 63 -11 77 3 21 21 13 48 -18 66 -36 21 -39 36 -6 30 28 -6
44 17 20 26 -22 8 -36 7 -56 -5z"/>
<path d="M2232 2516 c1 -10 8 -17 13 -17 15 1 12 24 -3 29 -9 3 -13 -2 -10
-12z"/>
<path d="M2500 2460 c0 -56 3 -70 15 -70 12 0 15 14 15 70 0 56 -3 70 -15 70
-12 0 -15 -14 -15 -70z"/>
<path d="M2682 2524 c-7 -3 -19 -19 -27 -34 -27 -52 13 -105 72 -98 39 4 40
26 2 30 -62 6 -65 73 -3 73 40 1 39 29 -1 32 -16 1 -36 -1 -43 -3z"/>
<path d="M2978 2492 c-4 -14 -14 -18 -47 -16 l-41 2 0 -44 c0 -32 4 -44 15
-44 10 0 15 10 15 30 0 23 4 30 20 30 11 0 23 1 27 3 4 1 10 -11 13 -28 4 -22
11 -31 30 -33 21 -3 22 -2 11 12 -8 9 -11 26 -7 41 7 26 -8 65 -23 65 -5 0
-11 -8 -13 -18z"/>
<path d="M2230 2436 c0 -35 4 -46 16 -46 12 0 14 9 12 42 -4 59 -28 63 -28 4z"/>
<path d="M2280 2433 c0 -32 4 -43 15 -43 10 0 15 10 15 30 0 20 5 30 15 30 10
0 15 -10 15 -30 0 -20 5 -30 15 -30 10 0 15 10 15 34 0 40 -14 53 -57 53 -32
0 -33 -2 -33 -44z"/>
<path d="M2395 2463 c-31 -30 -11 -73 33 -73 13 0 21 -4 17 -10 -4 -6 -16 -10
-27 -8 -12 2 -23 -3 -25 -9 -8 -21 66 -21 79 0 4 6 8 35 8 63 l0 50 -35 1
c-20 1 -42 -6 -50 -14z m55 -27 c0 -20 -19 -31 -32 -18 -6 6 -7 15 -4 21 10
16 36 13 36 -3z"/>
<path d="M2561 2461 c-25 -25 -26 -35 -5 -56 17 -17 73 -17 64 0 -3 5 -13 8
-22 7 -10 -2 -18 2 -18 7 0 6 14 11 31 11 30 0 31 1 17 23 -21 30 -43 32 -67
8z m39 -11 c0 -5 -4 -10 -10 -10 -5 0 -10 5 -10 10 0 6 5 10 10 10 6 0 10 -4
10 -10z"/>
<path d="M2788 2469 c-21 -12 -24 -52 -5 -67 6 -5 29 -10 50 -10 l38 0 -3 41
c-3 38 -5 42 -33 44 -16 1 -38 -2 -47 -8z m50 -36 c-2 -10 -10 -18 -18 -18 -8
0 -16 8 -18 18 -2 12 3 17 18 17 15 0 20 -5 18 -17z"/>
</g>
</svg>
